<svg xmlns="http://www.w3.org/2000/svg" viewBox="0 0 64 64">
  <!-- Background -->
  <rect width="64" height="64" rx="14" fill="hsl(234 89% 58%)"/>

  <!-- Wallet icon (thinner stroke) -->
  <g
    fill="none"
    stroke="#ffffff"
    stroke-width="2.2"
    stroke-linecap="round"
    stroke-linejoin="round"
    transform="translate(12 13) scale(1.6667)"
  >
    <path d="M19 7V4a1 1 0 0 0-1-1H5a2 2 0 0 0 0 4h15a1 1 0 0 1 1 1v4h-3a2 2 0 0 0 0 4h3a1 1 0 0 0 1-1v-2a1 1 0 0 0-1-1"/>
    <path d="M3 5v14a2 2 0 0 0 2 2h15a1 1 0 0 0 1-1v-4"/>
  </g>
</svg>
